# xmcd CD database file
#
# Track frame offsets:
#	150
#	21162
#	44550
#	58268
#	85199
#	106826
#	130767
#	152735
#	178313
#	199417
#	221946
#	244135
#	250704
#	268094
#
# Disc length: 3862 seconds
#
# Revision: 0
# Processed by: cddbd v1.5.1PL2 Copyright (c) Steve Scherf et al.
# Submitted via: CDex 1.51
#
DISCID=d20f140e
DTITLE=SERGE LUC QUARTET - Résonances
DYEAR=2001
DGENRE=Jazz
TTITLE0=africain
TTITLE1=passion
TTITLE2=hep
TTITLE3=zoriona
TTITLE4=goxoa
TTITLE5=parenthèse
TTITLE6=biga
TTITLE7=camille
TTITLE8=jazzovale
TTITLE9=koxka
TTITLE10=qu'est-ce que j'aime
TTITLE11=résonnance
TTITLE12=virade
TTITLE13=zarbi blues
EXTD=YEAR: 2001
EXTT0=
EXTT1=
EXTT2=
EXTT3=
EXTT4=
EXTT5=
EXTT6=
EXTT7=
EXTT8=
EXTT9=
EXTT10=
EXTT11=
EXTT12=
EXTT13=
PLAYORDER=
